<svg width="148" height="32" viewBox="0 0 148 32" fill="none" xmlns="http://www.w3.org/2000/svg">
<path d="M0 31.6649V0.340393H8.12233C10.7041 0.340393 12.6367 0.979201 13.9198 2.26213C15.2028 3.54507 15.8417 5.47736 15.8417 8.05894V12.578C15.8417 17.6626 13.2702 20.2075 8.12233 20.2075H5.29982V31.6649H0ZM7.69837 16.1126C8.70909 16.1126 9.45274 15.8508 9.92406 15.3272C10.3954 14.8087 10.6308 13.9918 10.6308 12.8922V7.72379C10.6308 6.58748 10.3954 5.75487 9.92406 5.22599C9.45274 4.69711 8.70909 4.43004 7.69837 4.43004H5.29982V16.1126H7.69837Z" fill="white"/>
<path d="M23.47 0.340393H18.167V31.6654H23.47V0.340393Z" fill="white"/>
<path d="M25.6455 31.6649V27.9261L32.9404 7.36245C33.1604 6.69218 33.5899 5.84387 34.2131 4.81229L34.0558 4.52432C33.1184 4.56621 32.2283 4.58716 31.3957 4.58716H25.9805V0.340393H39.9423V4.07399L33.0504 24.3443C32.7833 25.0931 32.2964 26.0409 31.5946 27.1877L31.7306 27.481C32.3277 27.4338 33.2284 27.4129 34.4381 27.4129H40.3455V31.6649H25.6455Z" fill="#F89E26"/>
<path d="M41.9111 31.6649V27.9261L49.2063 7.36245C49.4314 6.69218 49.8556 5.84387 50.484 4.81229L50.327 4.52432C49.3844 4.56621 48.4992 4.58716 47.6613 4.58716H42.2464V0.340393H56.2132V4.07399L49.3162 24.3443C49.0491 25.0931 48.5673 26.0409 47.8656 27.1877L47.9965 27.481C48.5935 27.4338 49.4994 27.4129 50.7039 27.4129H56.6113V31.6649H41.9111Z" fill="#F89E26"/>
<path d="M58.1826 31.6649V27.9261L65.4774 7.36245C65.6974 6.69218 66.1217 5.84387 66.7501 4.81229L66.5931 4.52432C65.6557 4.56621 64.7654 4.58716 63.9327 4.58716H58.5178V0.340393H72.4792V4.07399L65.5876 24.3443C65.3206 25.0931 64.8334 26.0409 64.1316 27.1877L64.2679 27.481C64.8649 27.4338 65.7656 27.4129 66.9754 27.4129H72.8825V31.6649H58.1826Z" fill="#F89E26"/>
<path d="M74.4482 31.6649V27.9261L81.7431 7.36245C81.9683 6.69218 82.3925 5.84387 83.0209 4.81229L82.8639 4.52432C81.9212 4.56621 81.0363 4.58716 80.1984 4.58716H74.7832V0.340393H88.745V4.07399L81.8531 24.3443C81.586 25.0931 81.0989 26.0409 80.4024 27.1877L80.5334 27.481C81.1304 27.4338 82.0366 27.4129 83.2411 27.4129H89.1482V31.6649H74.4482Z" fill="#F89E26"/>
<path d="M95.3906 31.6649H90.269L96.1291 0.340393H102.89L108.839 31.6649H103.314L102.466 26.4965H96.2442L95.3906 31.6649ZM96.9147 22.6896H101.816L100.518 14.615C100.083 11.7192 99.7741 9.00672 99.5751 6.46703H99.1089C98.9151 9.25807 98.6063 11.9706 98.1873 14.615L96.9147 22.6896Z" fill="white"/>
<path d="M117.187 28.4393H113.965V31.6613H117.187V28.4393Z" fill="white"/>
<path d="M127.031 32C124.659 32 122.852 31.1412 121.616 29.4236C120.375 27.7113 119.757 25.2188 119.757 21.9512V10.0487C119.757 6.78119 120.375 4.28862 121.606 2.5763C122.837 0.858739 124.628 0 126.984 0C129.121 0 130.781 0.77496 131.965 2.31972C133.153 3.86447 133.745 6.22089 133.745 9.39942V11.0123L131.619 11.7716V10.0697C131.619 7.99606 131.441 6.3466 131.09 5.11603C130.744 3.88546 130.231 3.00571 129.561 2.47159C128.89 1.94271 128.032 1.68088 126.984 1.68088C125.272 1.68088 123.999 2.37213 123.172 3.74932C122.344 5.13175 121.931 7.25773 121.931 10.1378V21.8622C121.931 24.7266 122.35 26.8473 123.193 28.2298C124.036 29.607 125.314 30.2981 127.031 30.2981C128.089 30.2981 128.969 30.0311 129.671 29.5022C130.372 28.9733 130.907 28.0884 131.273 26.8421C131.635 25.5958 131.818 23.9201 131.818 21.8203V19.9404L133.991 20.6526V22.4435C133.991 25.6796 133.373 28.0831 132.132 29.6488C130.896 31.2145 129.194 32 127.031 32Z" fill="white"/>
<path d="M135.824 31.6649V30.3453L144.261 4.70237C144.591 3.7441 144.91 2.95338 145.225 2.33024L145.115 2.03703C144.397 2.06845 143.402 2.08414 142.135 2.08414H136.097V0.340424H147.487V1.63381L139.139 27.1458C138.883 27.9051 138.542 28.7377 138.108 29.6489L138.223 29.916C138.773 29.9055 139.595 29.895 140.684 29.895H148V31.6649H135.824Z" fill="white"/>
</svg>
